<?xml version="1.0" standalone="no"?>
<!DOCTYPE svg PUBLIC "-//W3C//DTD SVG 20010904//EN"
 "http://www.w3.org/TR/2001/REC-SVG-20010904/DTD/svg10.dtd">
<svg version="1.0" xmlns="http://www.w3.org/2000/svg"
 width="32.000000pt" height="32.000000pt" viewBox="0 0 32.000000 32.000000"
 preserveAspectRatio="xMidYMid meet">

<g transform="translate(0.000000,32.000000) scale(0.100000,-0.100000)"
fill="#000000" stroke="none">
<path d="M30 248 c-7 -40 -14 -100 -15 -133 -1 -33 -6 -72 -10 -87 -7 -28 -6
-28 38 -28 l46 0 7 45 c3 25 10 45 15 45 5 0 9 -4 9 -10 0 -14 54 -12 69 2 10
11 11 4 6 -34 l-7 -48 44 0 45 0 11 64 c7 35 9 71 6 79 -3 9 1 50 10 92 9 43
16 79 16 81 0 2 -22 4 -48 4 -48 0 -49 0 -77 -51 -28 -52 -44 -53 -45 -2 0 44
-10 53 -59 53 l-48 0 -13 -72z"/>
</g>
</svg>
